<svg width="297" height="300" viewBox="0 0 297 300" fill="none" xmlns="http://www.w3.org/2000/svg">
<path d="M61.5466 85.1822C88.914 57.5966 116.028 30.4535 142.87 3.04392C147.008 -1.18191 149.341 -0.536521 153.091 3.29719C169.093 19.6553 185.464 35.6513 201.475 52.0006C205.685 56.3005 208.479 56.4875 212.856 51.9508C228.746 35.4817 245.157 19.5162 261.135 3.13062C264.962 -0.794512 267.556 -1.23515 271.471 2.98945C278.634 10.7187 286.163 18.1238 293.799 25.392C297.136 28.5685 297.385 30.7447 293.964 34.1521C266.301 61.7104 238.749 89.3814 211.301 117.155C207.834 120.663 205.61 119.988 202.498 116.849C185.756 99.9566 168.869 83.2085 152.012 66.4305C150.773 65.1976 149.378 64.1218 147.638 62.6101C138.905 71.3645 130.376 79.865 121.904 88.4223C112.589 97.8301 103.236 107.202 94.0895 116.772C90.5655 120.459 87.8798 120.856 84.1559 116.876C76.8008 109.014 69.0763 101.493 61.3968 93.941C58.4709 91.0636 57.6802 88.4237 61.5466 85.1822Z" fill="#8FFF40"/>
<path d="M223.185 225.042C199.998 248.551 177.036 271.615 154.394 294.988C150.146 299.373 147.523 299.181 143.565 294.942C136.522 287.399 129.176 280.119 121.645 273.062C117.925 269.577 118.21 267.251 121.711 263.779C137.968 247.657 153.838 231.143 170.202 215.132C174.956 210.48 174.493 207.644 169.993 203.216C153.992 187.476 138.485 171.234 122.517 155.46C118.473 151.466 117.752 148.807 122.242 144.626C129.956 137.443 137.228 129.775 144.513 122.147C147.511 119.007 149.884 118.986 152.949 122.071C180.308 149.607 207.703 177.107 235.219 204.485C238.658 207.907 238.317 210.263 234.972 213.302C230.989 216.92 227.324 220.888 223.185 225.042Z" fill="#8FFF40"/>
<path d="M13.7178 285.134C9.89084 281.316 6.58508 277.606 2.8324 274.425C-1.0487 271.134 -0.802014 268.642 2.72162 265.15C19.4522 248.566 35.9925 231.791 52.5855 215.069C63.0137 204.56 73.5296 194.133 83.7662 183.44C87.2814 179.768 89.7898 179.077 93.5914 183.162C100.77 190.878 108.298 198.282 115.926 205.557C119.436 208.904 119.711 211.253 116.071 214.885C88.4383 242.46 60.9573 270.188 33.5327 297.97C30.7789 300.759 28.8726 300.61 26.3443 297.916C22.3547 293.665 18.1539 289.613 13.7178 285.134Z" fill="#8FFF40"/>
</svg>
